<svg width="47" height="12" viewBox="0 0 47 12" fill="none" xmlns="http://www.w3.org/2000/svg">
<path d="M0.186279 11.13H10.5325V0.87H0.186279V11.13ZM8.54111 5.0128H6.35489V2.8448H8.54111V5.0128ZM2.17727 2.8448H4.36471V6.9872H8.54111V9.1552H2.17727V2.8448ZM17.2698 0.87C16.2467 0.87 15.2465 1.17087 14.3958 1.73456C13.5451 2.29826 12.882 3.09945 12.4905 4.03684C12.099 4.97424 11.9965 6.00568 12.1961 7.0008C12.3958 7.99592 12.8884 8.91 13.6119 9.62744C14.3354 10.3449 15.2571 10.8335 16.2606 11.0314C17.2641 11.2294 18.3042 11.1278 19.2495 10.7395C20.1948 10.3512 21.0027 9.69372 21.5711 8.85008C22.1396 8.00644 22.443 7.0146 22.443 6C22.4413 4.63992 21.8958 3.33602 20.926 2.3743C19.9562 1.41258 18.6414 0.871588 17.2698 0.87ZM17.2698 9.1552C16.6406 9.1552 16.0254 8.97016 15.5022 8.62344C14.979 8.27676 14.5711 7.784 14.3303 7.20744C14.0895 6.63092 14.0265 5.99652 14.1492 5.38444C14.272 4.7724 14.5751 4.2102 15.02 3.76894C15.465 3.32768 16.0319 3.02717 16.6491 2.90543C17.2663 2.78368 17.906 2.84617 18.4874 3.08498C19.0688 3.32378 19.5657 3.7282 19.9153 4.24708C20.265 4.76592 20.4516 5.37596 20.4516 6C20.4503 6.83644 20.1146 7.63824 19.5182 8.22968C18.9218 8.82112 18.1133 9.15392 17.2698 9.1552ZM40.9548 0.87C39.9315 0.869924 38.9314 1.17072 38.0807 1.73437C37.2299 2.29801 36.5668 3.09918 36.1752 4.03656C35.7836 4.97392 35.6811 6.00544 35.8807 7.00056C36.0802 7.99572 36.5729 8.90984 37.2963 9.62732C38.0198 10.3448 38.9415 10.8334 39.9452 11.0314C40.9484 11.2294 41.9886 11.1278 42.9341 10.7396C43.8792 10.3513 44.6871 9.69376 45.2555 8.85012C45.8242 8.00648 46.1275 7.01464 46.1275 6C46.1259 4.64 45.5806 3.33614 44.6109 2.37444C43.6412 1.41273 42.3263 0.871696 40.9548 0.87ZM40.9548 9.1552C40.3256 9.15528 39.7105 8.97028 39.1871 8.62364C38.6638 8.277 38.2559 7.78424 38.015 7.20772C37.7741 6.6312 37.7111 5.99676 37.8338 5.38468C37.9565 4.77264 38.2595 4.2104 38.7045 3.76908C39.1494 3.32778 39.7165 3.02723 40.3336 2.90546C40.9508 2.78368 41.5905 2.84614 42.1718 3.08494C42.7534 3.32374 43.2504 3.72814 43.6001 4.24704C43.9494 4.76592 44.1361 5.37596 44.1361 6C44.1349 6.83636 43.7993 7.63808 43.2028 8.22952C42.6066 8.82096 41.7983 9.15384 40.9548 9.1552ZM29.1121 0.87C28.089 0.87 27.0888 1.17087 26.2381 1.73456C25.3874 2.29826 24.7243 3.09945 24.3328 4.03684C23.9412 4.97424 23.8388 6.00568 24.0384 7.0008C24.238 7.99592 24.7307 8.91 25.4542 9.62744C26.1776 10.3449 27.0994 10.8335 28.1029 11.0314C29.1064 11.2294 30.1465 11.1278 31.0918 10.7395C32.0371 10.3512 32.845 9.69372 33.4134 8.85008C33.9818 8.00644 34.2852 7.0146 34.2852 6C34.2836 4.63992 33.7381 3.33602 32.7683 2.3743C31.7985 1.41258 30.4836 0.871588 29.1121 0.87ZM29.1121 9.1552C28.5258 9.15548 27.9509 8.99512 27.4506 8.6918C26.9505 8.38848 26.5445 7.95404 26.2776 7.43636C26.0107 6.91868 25.8932 6.33792 25.9382 5.75824C25.9831 5.17852 26.1887 4.6224 26.5322 4.15124C26.8757 3.6801 27.3439 3.31224 27.8849 3.08828C28.426 2.86432 29.0189 2.79297 29.5983 2.8821C30.1777 2.97123 30.7209 3.21737 31.1681 3.59337C31.6153 3.96936 31.9491 4.4606 32.1325 5.0128H29.1121V6.9872H32.1325C31.9224 7.61732 31.5176 8.16588 30.9754 8.555C30.4333 8.94416 29.7814 9.15412 29.1121 9.1552Z" fill="#394149"/>
</svg>
