<svg width="16" height="16" viewBox="0 0 16 16" fill="none" xmlns="http://www.w3.org/2000/svg">
<path d="M3.95948 2.04045C3.56895 1.64993 3.56895 1.01676 3.95948 0.626237C4.35 0.235712 4.98317 0.235712 5.37369 0.626237L3.95948 2.04045ZM10.6261 7.2929L11.3333 6.5858H11.3333L10.6261 7.2929ZM10.6261 8.70712L9.91904 8.00001L9.91904 8.00001L10.6261 8.70712ZM5.37369 15.3738C4.98317 15.7643 4.35 15.7643 3.95948 15.3738C3.56895 14.9833 3.56895 14.3501 3.95948 13.9596L5.37369 15.3738ZM5.37369 0.626237L11.3333 6.5858L9.91904 8.00001L3.95948 2.04045L5.37369 0.626237ZM11.3333 9.41422L5.37369 15.3738L3.95948 13.9596L9.91904 8.00001L11.3333 9.41422ZM11.3333 6.5858C12.1143 7.36685 12.1143 8.63318 11.3333 9.41422L9.91904 8.00001L9.91904 8.00001L11.3333 6.5858Z" fill="#242424"/>
</svg>
