<svg width="20" height="20" viewBox="0 0 20 20" fill="none" xmlns="http://www.w3.org/2000/svg">
<path d="M14.2929 15.7071C14.6834 16.0976 15.3166 16.0976 15.7071 15.7071C16.0976 15.3166 16.0976 14.6834 15.7071 14.2929L14.2929 15.7071ZM10 10L10.7071 9.29289C10.5196 9.10536 10.2652 9 10 9C9.73478 9 9.48043 9.10536 9.29289 9.29289L10 10ZM4.29289 14.2929C3.90237 14.6834 3.90237 15.3166 4.29289 15.7071C4.68342 16.0976 5.31658 16.0976 5.70711 15.7071L4.29289 14.2929ZM15.7071 14.2929L10.7071 9.29289L9.29289 10.7071L14.2929 15.7071L15.7071 14.2929ZM9.29289 9.29289L4.29289 14.2929L5.70711 15.7071L10.7071 10.7071L9.29289 9.29289Z" fill="#626262"/>
<path d="M14.2929 10.7071C14.6834 11.0976 15.3166 11.0976 15.7071 10.7071C16.0976 10.3166 16.0976 9.68342 15.7071 9.29289L14.2929 10.7071ZM10 5L10.7071 4.29289C10.3166 3.90237 9.68342 3.90237 9.29289 4.29289L10 5ZM4.29289 9.29289C3.90237 9.68342 3.90237 10.3166 4.29289 10.7071C4.68342 11.0976 5.31658 11.0976 5.70711 10.7071L4.29289 9.29289ZM15.7071 9.29289L10.7071 4.29289L9.29289 5.70711L14.2929 10.7071L15.7071 9.29289ZM9.29289 4.29289L4.29289 9.29289L5.70711 10.7071L10.7071 5.70711L9.29289 4.29289Z" fill="#626262"/>
</svg>
