<svg width="24" height="24" viewBox="0 0 24 24" fill="none" xmlns="http://www.w3.org/2000/svg">
<path d="M7.70711 8.29289C7.31658 7.90237 6.68342 7.90237 6.29289 8.29289C5.90237 8.68342 5.90237 9.31658 6.29289 9.70711L7.70711 8.29289ZM12 14L11.2929 14.7071C11.6834 15.0976 12.3166 15.0976 12.7071 14.7071L12 14ZM17.7071 9.70711C18.0976 9.31658 18.0976 8.68342 17.7071 8.29289C17.3166 7.90237 16.6834 7.90237 16.2929 8.29289L17.7071 9.70711ZM13 5C13 4.44772 12.5523 4 12 4C11.4477 4 11 4.44771 11 5L13 5ZM6.29289 9.70711L11.2929 14.7071L12.7071 13.2929L7.70711 8.29289L6.29289 9.70711ZM12.7071 14.7071L17.7071 9.70711L16.2929 8.29289L11.2929 13.2929L12.7071 14.7071ZM13 14L13 5L11 5L11 14L13 14Z" fill="#403BD7"/>
<path d="M7 19L7 18H7V19ZM17 19V20V19ZM7 20L17 20V18L7 18L7 20ZM6 17V16H4V17H6ZM20 17V16H18V17H20ZM17 20C18.6569 20 20 18.6569 20 17H18C18 17.5523 17.5523 18 17 18V20ZM7 18C6.44772 18 6 17.5523 6 17H4C4 18.6569 5.34315 20 7 20V18Z" fill="#403BD7"/>
</svg>
