<svg width="24" height="24" viewBox="0 0 24 24" fill="none" xmlns="http://www.w3.org/2000/svg">
<path d="M4.84579 3L3.63423 3.34081L9.63274 9.16702L8.91113 9.25997L3.00682 3.51712L3 3.51933L3.61071 6.42432L4.52145 7.30954L5.84847 6.87357L5.61451 8.37032L6.05584 8.79892L6.48122 8.59753L7.1785 9.27472L7.08811 9.80143L7.87808 10.5679L8.13181 10.4447L8.77442 11.2458L8.73188 11.3978L9.75581 12.3929L12.1364 10.0803L4.84579 3Z" fill="#403BD7"/>
<path d="M20.5579 14.0025L15.9297 9.50782C15.3395 8.93538 14.3839 8.93538 13.7945 9.50782L9.16628 14.0025C8.57608 14.5742 8.57608 15.5037 9.16628 16.0761L13.7937 20.5701C14.3831 21.1433 15.3395 21.1433 15.9297 20.5701L20.5579 16.0761C21.1473 15.5037 21.1473 14.5742 20.5579 14.0025ZM16.2252 18.1446C15.856 18.5031 15.2582 18.5031 14.8898 18.1446C14.5214 17.7876 14.5214 17.207 14.8898 16.8485L16.725 15.0663C17.0941 14.7077 17.6912 14.7077 18.0596 15.0663C18.4287 15.424 18.4287 16.0053 18.0596 16.3624L16.2252 18.1446Z" fill="#403BD7"/>
</svg>
