<svg width="149" height="146" viewBox="0 0 149 146" fill="none" xmlns="http://www.w3.org/2000/svg">
<g clip-path="url(#clip0_502_12558)">
<path fill-rule="evenodd" clip-rule="evenodd" d="M90.1984 0.876165C91.007 -0.731442 92.6767 -1.72202 94.4751 -1.6611L140.085 -0.116177C142.63 -0.0299357 144.624 2.10387 144.538 4.64983C144.452 7.19578 142.318 9.18978 139.772 9.10353L135.425 8.95628L154.251 40.6893C157.717 46.5316 155.791 54.0775 149.948 57.5436L115.568 77.9401C109.726 81.4061 102.18 79.4798 98.7142 73.6375L79.8881 41.9045L77.9336 45.7903C76.7889 48.066 74.0161 48.983 71.7404 47.8383C69.4646 46.6936 68.5477 43.9208 69.6923 41.6451L90.1984 0.876165ZM95.3399 36.3096C94.4733 34.8491 94.9549 32.9626 96.4155 32.0961L104.349 27.3892C105.81 26.5227 107.696 27.0043 108.563 28.4648L113.27 36.3987C114.136 37.8593 113.655 39.7458 112.194 40.6123L104.26 45.3191C102.8 46.1857 100.913 45.7041 100.047 44.2435L95.3399 36.3096ZM108.183 51.9307C107.316 50.4701 107.798 48.5836 109.258 47.7171L114.548 44.5792C116.008 43.7127 117.895 44.1943 118.761 45.6548L121.899 50.9441C122.766 52.4047 122.284 54.2911 120.823 55.1577L115.534 58.2956C114.074 59.1621 112.187 58.6805 111.321 57.2199L108.183 51.9307ZM114.099 28.756C113.232 27.2954 113.714 25.409 115.174 24.5424L120.464 21.4045C121.924 20.538 123.811 21.0196 124.677 22.4802L127.815 27.7694C128.682 29.23 128.2 31.1165 126.74 31.983L121.45 35.1209C119.99 35.9874 118.103 35.5058 117.237 34.0453L114.099 28.756ZM122.728 43.3014C121.862 41.8408 122.343 39.9543 123.804 39.0878L129.093 35.9499C130.554 35.0834 132.44 35.565 133.307 37.0256L136.444 42.3148C137.311 43.7754 136.829 45.6619 135.369 46.5284L130.08 49.6663C128.619 50.5328 126.733 50.0512 125.866 48.5906L122.728 43.3014Z" fill="black" fill-opacity="0.15"/>
</g>
<defs>
<clipPath id="clip0_502_12558">
<rect width="98.4" height="98.4" fill="white" transform="translate(44.9448 16.1514) rotate(-30.6792)"/>
</clipPath>
</defs>
</svg>
