<svg width="192" height="176" viewBox="0 0 192 176" fill="none" xmlns="http://www.w3.org/2000/svg">
<g clip-path="url(#clip0_502_12519)">
<path d="M92.1511 28.9617C89.5332 24.5587 87.8506 21.7069 86.8857 19.4422C85.9807 17.3184 86.0411 16.4482 86.1811 15.8978C86.321 15.3475 86.6836 14.5541 88.493 13.1204C90.4224 11.5916 93.2627 9.88973 97.6657 7.27182L143.006 -19.6869C147.409 -22.3048 150.261 -23.9874 152.526 -24.9524C154.65 -25.8573 155.52 -25.7969 156.07 -25.657C156.621 -25.517 157.414 -25.1544 158.848 -23.345C160.377 -21.4156 162.078 -18.5753 164.696 -14.1723L186.263 22.1003L113.718 65.2343L92.1511 28.9617Z" stroke="black" stroke-opacity="0.15" stroke-width="10.55"/>
<path d="M117.599 75.2011C113.425 77.6826 112.054 83.0775 114.535 87.251C118.009 93.0939 125.562 95.0143 131.405 91.5402L200.928 50.2034C206.771 46.7294 208.691 39.1764 205.217 33.3335C202.735 29.16 197.34 27.7884 193.167 30.2699L117.599 75.2011Z" stroke="black" stroke-opacity="0.15" stroke-width="10.55"/>
</g>
<defs>
<clipPath id="clip0_502_12519">
<rect width="126.6" height="126.6" fill="white" transform="matrix(0.859541 -0.511066 -0.511066 -0.859541 122.541 121.359)"/>
</clipPath>
</defs>
</svg>
