<svg width="96" height="93" viewBox="0 0 96 93" fill="none" xmlns="http://www.w3.org/2000/svg">
<path fill-rule="evenodd" clip-rule="evenodd" d="M8.23804 35.9003C2.52579 27.7191 -0.330348 23.6285 0.43665 19.3123C1.20365 14.9962 5.29424 12.1401 13.4754 6.42781L30.8303 -5.68972C39.0115 -11.402 43.1021 -14.2581 47.4183 -13.4911C51.7344 -12.7241 54.5905 -8.63352 60.3028 -0.452342L90.5966 42.935C96.3089 51.1161 99.165 55.2067 98.398 59.5229C97.631 63.839 93.5404 66.6951 85.3592 72.4074L68.0043 84.5249C59.8231 90.2372 55.7326 93.0933 51.4164 92.3263C47.1003 91.5593 44.2441 87.4687 38.5319 79.2876L8.23804 35.9003ZM17.3648 16.62C16.5283 15.4219 16.8214 13.7724 18.0195 12.9359L35.3744 0.818373C36.5725 -0.018169 38.2219 0.274944 39.0585 1.47305C39.895 2.67115 39.6019 4.32056 38.4038 5.15711L21.0489 17.2746C19.8508 18.1112 18.2014 17.8181 17.3648 16.62ZM70.623 69.7887C73.0192 68.1156 73.6055 64.8168 71.9324 62.4206C70.2593 60.0244 66.9605 59.4382 64.5643 61.1113C62.168 62.7843 61.5818 66.0832 63.2549 68.4794C64.928 70.8756 68.2268 71.4618 70.623 69.7887Z" fill="black" fill-opacity="0.15"/>
</svg>
