<svg width="25" height="24" viewBox="0 0 25 24" fill="none" xmlns="http://www.w3.org/2000/svg">
<path fill-rule="evenodd" clip-rule="evenodd" d="M9.01669 4.79613C6.34343 6.09112 4.5 8.83028 4.5 12C4.5 12.1969 4.50711 12.3921 4.5211 12.5855L10.6629 10.9398L9.01669 4.79613ZM11.9148 4.02107L13.6901 10.6463L13.7017 10.6897C13.7517 10.8754 13.8222 11.1373 13.8532 11.3775C13.8922 11.6802 13.9014 12.159 13.6197 12.6469C13.338 13.1348 12.9188 13.3662 12.6371 13.4838C12.4136 13.5771 12.1515 13.647 11.9657 13.6965L11.9223 13.7081L5.29626 15.4836C6.5913 18.1567 9.33039 20 12.5 20C16.9183 20 20.5 16.4183 20.5 12C20.5 7.58172 16.9183 4 12.5 4C12.3032 4 12.1081 4.00711 11.9148 4.02107Z" fill="white"/>
<path d="M10.4294 4.27259C10.1785 3.33602 10.053 2.86773 9.62083 2.67286C9.18865 2.47799 8.80723 2.66782 8.04439 3.04748C7.47028 3.33321 6.92361 3.67419 6.41239 4.06647C5.37054 4.8659 4.49636 5.86272 3.83975 7C3.18314 8.13728 2.75696 9.39275 2.58555 10.6947C2.50144 11.3336 2.47948 11.9775 2.51909 12.6176C2.57171 13.4681 2.59803 13.8933 2.98288 14.1701C3.36773 14.447 3.83602 14.3215 4.77259 14.0706L10.5681 12.5176C11.4788 12.2736 11.9342 12.1516 12.1413 11.7929C12.3484 11.4342 12.2264 10.9788 11.9824 10.0681L10.4294 4.27259Z" fill="white"/>
</svg>
